{"glyphs":{"0":{"ha":347,"x_min":0,"x_max":327,"o":"m 327 707 l 327 766 l 327 1329 q 323 1353 327 1342 q 310 1371 318 1363 q 291 1384 302 1380 q 268 1389 280 1389 l 164 1389 l 60 1389 q 36 1384 47 1389 q 17 1371 26 1380 q 5 1353 9 1363 q 0 1329 0 1342 l 0 60 q 5 36 0 47 q 17 17 9 26 q 36 5 26 9 q 60 0 47 0 l 164 0 l 268 0 q 291 5 280 0 q 310 17 302 9 q 323 36 318 26 q 327 60 327 47 l 327 647 l 327 707 m 164 1270 l 174 1270 l 174 766 l 154 766 l 154 1270 l 164 1270 m 164 119 l 154 119 l 154 647 l 174 647 l 174 119 l 164 119 "},"1":{"ha":194,"x_min":0,"x_max":174,"o":"m 174 1389 l 0 1389 l 0 1270 l 20 1270 l 20 0 l 174 0 l 174 1389 "},"2":{"ha":347,"x_min":0,"x_max":327,"o":"m 154 119 l 154 407 l 327 407 l 327 1329 q 323 1353 327 1342 q 310 1371 318 1363 q 291 1384 302 1380 q 268 1389 280 1389 l 60 1389 q 36 1384 47 1389 q 17 1371 26 1380 q 5 1353 9 1363 q 0 1329 0 1342 l 0 546 l 154 546 l 154 1270 l 174 1270 l 174 526 l 0 526 l 0 60 q 5 36 0 47 q 17 17 9 26 q 36 5 26 9 q 60 0 47 0 l 268 0 q 291 5 280 0 q 310 17 302 9 q 323 36 318 26 q 327 60 327 47 l 327 387 l 174 387 l 174 119 l 154 119 "},"3":{"ha":347,"x_min":0,"x_max":327,"o":"m 327 766 l 327 766 l 327 1329 q 323 1353 327 1342 q 310 1371 318 1363 q 291 1384 302 1380 q 268 1389 280 1389 l 60 1389 q 36 1384 47 1389 q 17 1371 26 1380 q 5 1353 9 1363 q 0 1329 0 1342 l 0 786 l 154 786 l 154 1270 l 164 1270 l 174 1270 l 174 766 l 1 766 l 1 647 l 174 647 l 174 119 l 164 119 l 154 119 l 154 627 l 0 627 l 0 60 q 5 36 0 47 q 17 17 9 26 q 36 5 26 9 q 60 0 47 0 l 268 0 q 291 5 280 0 q 310 17 302 9 q 323 36 318 26 q 327 60 327 47 l 327 647 q 323 670 327 660 q 310 689 318 681 q 291 702 302 697 q 268 707 280 707 q 291 712 280 707 q 310 724 302 716 q 323 743 318 732 q 327 766 327 754 "},"4":{"ha":347,"x_min":0,"x_max":347,"o":"m 347 323 l 327 323 l 327 1389 l 174 1389 l 174 323 l 154 323 l 154 1389 l 0 1389 l 0 263 q 5 240 0 251 q 17 221 9 229 q 36 208 26 213 q 60 204 47 204 l 174 204 l 174 0 l 327 0 l 327 204 l 347 204 l 347 263 l 347 323 "},"5":{"ha":347,"x_min":0,"x_max":327,"o":"m 327 1389 l 60 1389 q 36 1384 47 1389 q 17 1371 26 1380 q 5 1353 9 1363 q 0 1329 0 1342 l 0 1131 l 174 1131 l 174 119 l 154 119 l 154 1111 l 0 1111 l 0 60 q 5 36 0 47 q 17 17 9 26 q 36 5 26 9 q 60 0 47 0 l 268 0 q 291 5 280 0 q 310 17 302 9 q 323 36 318 26 q 327 60 327 47 l 327 1250 l 154 1250 l 154 1270 l 327 1270 l 327 1389 "},"6":{"ha":347,"x_min":0,"x_max":327,"o":"m 327 766 l 154 766 l 154 1270 l 174 1270 l 174 786 l 327 786 l 327 1329 q 323 1353 327 1342 q 310 1371 318 1363 q 291 1384 302 1380 q 268 1389 280 1389 l 60 1389 q 36 1384 47 1389 q 17 1371 26 1380 q 5 1353 9 1363 q 0 1329 0 1342 l 0 60 q 5 36 0 47 q 17 17 9 26 q 36 5 26 9 q 60 0 47 0 l 268 0 q 291 5 280 0 q 310 17 302 9 q 323 36 318 26 q 327 60 327 47 l 327 766 m 174 119 l 154 119 l 154 647 l 174 647 l 174 119 "},"7":{"ha":213,"x_min":0,"x_max":193,"o":"m 174 766 l 174 766 l 174 1389 l 0 1389 l 0 1270 l 20 1270 l 20 766 l 0 766 l 0 647 l 20 647 l 20 0 l 174 0 l 174 647 l 193 647 l 193 766 l 174 766 "},"8":{"ha":347,"x_min":0,"x_max":327,"o":"m 327 766 l 327 766 l 327 1329 q 323 1353 327 1342 q 310 1371 318 1363 q 291 1384 302 1380 q 268 1389 280 1389 l 164 1389 l 60 1389 q 36 1384 47 1389 q 17 1371 26 1380 q 5 1353 9 1363 q 0 1329 0 1342 l 0 766 q 5 743 0 754 q 17 724 9 732 q 36 712 26 716 q 59 707 47 707 q 36 702 47 707 q 17 689 26 697 q 5 670 9 681 q 0 647 0 660 l 0 60 q 5 36 0 47 q 17 17 9 26 q 36 5 26 9 q 60 0 47 0 l 164 0 l 268 0 q 291 5 280 0 q 310 17 302 9 q 323 36 318 26 q 327 60 327 47 l 327 647 q 323 670 327 660 q 310 689 318 681 q 291 702 302 697 q 268 707 280 707 q 291 712 280 707 q 310 724 302 716 q 323 743 318 732 q 327 766 327 754 m 164 1270 l 174 1270 l 174 766 l 164 766 l 154 766 l 154 1270 l 164 1270 m 164 119 l 154 119 l 154 647 l 164 647 l 174 647 l 174 119 l 164 119 "},"9":{"ha":347,"x_min":0,"x_max":327,"o":"m 268 1389 l 268 1389 l 60 1389 q 36 1384 47 1389 q 17 1371 26 1380 q 5 1353 9 1363 q 0 1329 0 1342 l 0 766 l 0 647 l 174 647 l 174 119 l 154 119 l 154 627 l 0 627 l 0 60 q 5 36 0 47 q 17 17 9 26 q 36 5 26 9 q 60 0 47 0 l 268 0 q 291 5 280 0 q 310 17 302 9 q 323 36 318 26 q 327 60 327 47 l 327 1329 q 323 1353 327 1342 q 310 1371 318 1363 q 291 1384 302 1380 q 268 1389 280 1389 m 174 766 l 154 766 l 154 1270 l 174 1270 l 174 766 "},"-":{"ha":85,"x_min":0,"x_max":0,"o":""}," ":{"ha":154,"x_min":0,"x_max":0,"o":""},",":{"ha":173,"x_min":0,"x_max":152,"o":"m 0 386 l 0 -119 l 152 -119 l 152 386 l 0 386 "},".":{"ha":174,"x_min":0,"x_max":154,"o":"m 0 387 l 0 0 l 154 0 l 154 387 l 0 387 "},":":{"ha":174,"x_min":0,"x_max":154,"o":"m 154 847 l 0 847 l 0 407 l 154 407 l 154 847 m 0 387 l 0 0 l 154 0 l 154 387 l 0 387 "},"a":{"ha":347,"x_min":0,"x_max":327,"o":"m 268 982 l 268 982 l 60 982 q 36 977 47 982 q 17 965 26 973 q 5 946 9 957 q 0 923 0 935 l 0 571 l 154 571 l 154 863 l 174 863 l 174 551 l 0 551 l 0 432 l 0 60 q 5 36 0 47 q 17 17 9 26 q 36 5 26 9 q 60 0 47 0 l 327 0 l 327 923 q 323 946 327 935 q 310 965 318 957 q 291 977 302 973 q 268 982 280 982 m 174 119 l 154 119 l 154 432 l 174 432 l 174 119 "},"b":{"ha":347,"x_min":0,"x_max":327,"o":"m 268 982 l 268 982 l 154 982 l 154 1389 l 0 1389 l 0 0 l 268 0 q 291 5 280 0 q 310 17 302 9 q 323 36 318 26 q 327 60 327 47 l 327 923 q 323 946 327 935 q 310 965 318 957 q 291 977 302 973 q 268 982 280 982 m 154 119 l 154 863 l 174 863 l 174 119 l 154 119 "},"c":{"ha":347,"x_min":0,"x_max":327,"o":"m 174 511 l 327 511 l 327 923 q 323 946 327 935 q 310 965 318 957 q 291 977 302 973 q 268 982 280 982 l 60 982 q 36 977 47 982 q 17 965 26 973 q 5 946 9 957 q 0 923 0 935 l 0 60 q 5 36 0 47 q 17 17 9 26 q 36 5 26 9 q 60 0 47 0 l 268 0 q 291 5 280 0 q 310 17 302 9 q 323 36 318 26 q 327 60 327 47 l 327 491 l 174 491 l 174 119 l 154 119 l 154 863 l 174 863 l 174 511 "},"d":{"ha":347,"x_min":0,"x_max":327,"o":"m 327 1389 l 174 1389 l 174 982 l 60 982 q 36 977 47 982 q 17 965 26 973 q 5 946 9 957 q 0 923 0 935 l 0 60 q 5 36 0 47 q 17 17 9 26 q 36 5 26 9 q 60 0 47 0 l 327 0 l 327 1389 m 174 119 l 154 119 l 154 863 l 174 863 l 174 119 "},"e":{"ha":347,"x_min":0,"x_max":327,"o":"m 268 982 l 268 982 l 60 982 q 36 977 47 982 q 17 965 26 973 q 5 946 9 957 q 0 923 0 935 l 0 60 q 5 36 0 47 q 17 17 9 26 q 36 5 26 9 q 60 0 47 0 l 268 0 q 291 5 280 0 q 310 17 302 9 q 323 36 318 26 q 327 60 327 47 l 327 412 l 174 412 l 174 119 l 154 119 l 154 432 l 327 432 l 327 923 q 323 946 327 935 q 310 965 318 957 q 291 977 302 973 q 268 982 280 982 m 174 551 l 154 551 l 154 863 l 174 863 l 174 551 "},"f":{"ha":213,"x_min":0,"x_max":193,"o":"m 174 1270 l 193 1270 l 193 1389 l 79 1389 q 56 1384 67 1389 q 37 1371 46 1380 q 25 1353 29 1363 q 20 1329 20 1342 l 20 982 l 0 982 l 0 863 l 20 863 l 20 0 l 174 0 l 174 863 l 193 863 l 193 982 l 174 982 l 174 1270 "},"g":{"ha":347,"x_min":0,"x_max":327,"o":"m 327 -347 l 327 982 l 60 982 q 36 977 47 982 q 17 965 26 973 q 5 946 9 957 q 0 923 0 935 l 0 0 l 174 0 l 174 -288 l 154 -288 l 154 -20 l 0 -20 l 0 -347 q 5 -370 0 -359 q 17 -389 9 -381 q 36 -402 26 -397 q 60 -407 47 -407 l 268 -407 q 291 -402 280 -407 q 310 -389 302 -397 q 323 -370 318 -381 q 327 -347 327 -359 m 174 119 l 154 119 l 154 863 l 174 863 l 174 119 "},"h":{"ha":347,"x_min":0,"x_max":327,"o":"m 268 982 l 268 982 l 154 982 l 154 1389 l 0 1389 l 0 0 l 154 0 l 154 863 l 174 863 l 174 0 l 327 0 l 327 923 q 323 946 327 935 q 310 965 318 957 q 291 977 302 973 q 268 982 280 982 "},"i":{"ha":174,"x_min":0,"x_max":154,"o":"m 0 0 l 0 0 l 154 0 l 154 982 l 0 982 l 0 0 m 0 1389 l 0 1389 l 0 1002 l 154 1002 l 154 1389 l 0 1389 "},"j":{"ha":347,"x_min":0,"x_max":327,"o":"m 174 982 l 174 -288 l 154 -288 l 154 432 l 0 432 l 0 -347 l 0 -347 q 5 -370 0 -360 q 17 -389 9 -381 q 36 -402 26 -397 q 60 -407 47 -407 l 268 -407 q 291 -402 280 -407 q 310 -389 302 -397 q 323 -370 318 -381 q 327 -347 327 -360 l 327 982 l 174 982 m 327 1389 l 174 1389 l 174 1002 l 327 1002 l 327 1389 "},"k":{"ha":347,"x_min":0,"x_max":327,"o":"m 268 491 l 268 491 l 268 491 q 291 496 280 491 q 310 509 302 501 q 323 527 318 517 q 327 551 327 538 l 327 551 l 327 982 l 174 982 l 174 551 l 154 551 l 154 1389 l 0 1389 l 0 0 l 154 0 l 154 432 l 174 432 l 174 0 l 327 0 l 327 431 l 327 432 q 323 455 327 444 q 310 474 318 466 q 291 487 302 482 q 268 491 280 491 "},"l":{"ha":174,"x_min":0,"x_max":154,"o":"m 0 1389 l 0 1389 l 0 0 l 154 0 l 154 1389 l 0 1389 "},"m":{"ha":523,"x_min":0,"x_max":501,"o":"m 441 982 l 441 982 l 0 982 l 0 0 l 154 0 l 154 863 l 174 863 l 174 0 l 327 0 l 327 863 l 347 863 l 347 0 l 501 0 l 501 923 q 496 946 501 935 q 484 965 492 957 q 465 977 476 973 q 441 982 454 982 "},"n":{"ha":347,"x_min":0,"x_max":327,"o":"m 268 982 l 268 982 l 0 982 l 0 0 l 154 0 l 154 863 l 174 863 l 174 0 l 327 0 l 327 923 q 323 946 327 935 q 310 965 318 957 q 291 977 302 973 q 268 982 280 982 "},"o":{"ha":347,"x_min":0,"x_max":327,"o":"m 268 982 l 268 982 l 60 982 q 36 977 47 982 q 17 965 26 973 q 5 946 9 957 q 0 923 0 935 l 0 60 q 5 36 0 47 q 17 17 9 26 q 36 5 26 9 q 60 0 47 0 l 268 0 q 291 5 280 0 q 310 17 302 9 q 323 36 318 26 q 327 60 327 47 l 327 923 q 323 946 327 935 q 310 965 318 957 q 291 977 302 973 q 268 982 280 982 m 154 119 l 154 863 l 174 863 l 174 119 l 154 119 "},"p":{"ha":347,"x_min":0,"x_max":327,"o":"m 268 982 l 268 982 l 0 982 l 0 -407 l 154 -407 l 154 0 l 268 0 q 291 5 280 0 q 310 17 302 9 q 323 36 318 26 q 327 60 327 47 l 327 923 q 323 946 327 935 q 310 965 318 957 q 291 977 302 973 q 268 982 280 982 m 154 119 l 154 863 l 174 863 l 174 119 l 154 119 "},"q":{"ha":347,"x_min":0,"x_max":327,"o":"m 327 982 l 60 982 q 36 977 47 982 q 17 965 26 973 q 5 946 9 957 q 0 923 0 935 l 0 60 q 5 36 0 47 q 17 17 9 26 q 36 5 26 9 q 60 0 47 0 l 174 0 l 174 -407 l 327 -407 l 327 982 m 174 119 l 154 119 l 154 863 l 174 863 l 174 119 "},"r":{"ha":347,"x_min":0,"x_max":327,"o":"m 268 982 l 268 982 l 0 982 l 0 0 l 154 0 l 154 863 l 174 863 l 174 407 l 327 407 l 327 923 q 323 946 327 935 q 310 965 318 957 q 291 977 302 973 q 268 982 280 982 "},"s":{"ha":347,"x_min":0,"x_max":327,"o":"m 174 571 l 327 571 l 327 923 q 323 946 327 935 q 310 965 318 957 q 291 977 302 973 q 268 982 280 982 l 60 982 q 36 977 47 982 q 17 965 26 973 q 5 946 9 957 q 0 923 0 935 l 0 432 l 174 432 l 174 119 l 154 119 l 154 412 l 0 412 l 0 60 q 5 36 0 47 q 17 17 9 26 q 36 5 26 9 q 60 0 47 0 l 268 0 q 291 5 280 0 q 310 17 302 9 q 323 36 318 26 q 327 60 327 47 l 327 551 l 154 551 l 154 863 l 174 863 l 174 571 "},"t":{"ha":213,"x_min":0,"x_max":193,"o":"m 174 863 l 193 863 l 193 982 l 174 982 l 174 1389 l 20 1389 l 20 982 l 0 982 l 0 863 l 20 863 l 20 60 q 25 36 20 47 q 37 17 29 26 q 56 5 46 9 q 79 0 67 0 l 193 0 l 193 119 l 174 119 l 174 863 "},"u":{"ha":347,"x_min":0,"x_max":327,"o":"m 327 0 l 327 982 l 174 982 l 174 119 l 154 119 l 154 982 l 0 982 l 0 60 q 5 36 0 47 q 17 17 9 26 q 36 5 26 9 q 60 0 47 0 l 327 0 "},"v":{"ha":347,"x_min":0,"x_max":327,"o":"m 327 982 l 327 982 l 174 982 l 174 119 l 154 119 l 154 982 l 0 982 l 0 0 l 327 0 l 327 0 l 327 982 "},"w":{"ha":523,"x_min":0,"x_max":501,"o":"m 501 982 l 347 982 l 347 119 l 327 119 l 327 982 l 174 982 l 174 119 l 154 119 l 154 982 l 0 982 l 0 60 q 5 36 0 47 q 17 17 9 26 q 36 5 26 9 q 60 0 47 0 l 441 0 q 465 5 454 0 q 484 17 476 9 q 496 36 492 26 q 501 60 501 47 l 501 982 "},"x":{"ha":347,"x_min":0,"x_max":327,"o":"m 268 491 l 268 491 l 268 491 l 268 491 q 291 496 280 491 q 310 509 302 501 q 323 527 318 517 q 327 551 327 538 l 327 551 l 327 982 l 174 982 l 174 551 l 154 551 l 154 982 l 0 982 l 0 551 q 5 527 0 538 q 17 509 9 517 q 36 496 26 501 q 60 491 47 491 q 36 487 47 491 q 17 474 26 482 q 5 455 9 466 q 0 432 0 444 l 0 431 l 0 0 l 154 0 l 154 432 l 174 432 l 174 0 l 327 0 l 327 431 l 327 432 q 323 455 327 444 q 310 474 318 466 q 291 487 302 482 q 268 491 280 491 "},"y":{"ha":347,"x_min":0,"x_max":327,"o":"m 327 -347 l 327 -347 l 327 982 l 174 982 l 174 119 l 154 119 l 154 982 l 0 982 l 0 0 l 174 0 l 174 -288 l 154 -288 l 154 -20 l 0 -20 l 0 -347 q 5 -370 0 -359 q 17 -389 9 -381 q 36 -402 26 -397 q 60 -407 47 -407 l 268 -407 l 268 -407 q 291 -402 280 -407 q 310 -389 302 -397 q 323 -370 318 -381 q 327 -347 327 -359 "},"z":{"ha":347,"x_min":0,"x_max":327,"o":"m 154 432 l 154 432 l 327 432 l 327 982 l 0 982 l 0 863 l 0 571 l 154 571 l 154 863 l 174 863 l 174 551 l 0 551 l 0 0 l 327 0 l 327 412 l 174 412 l 174 119 l 154 119 l 154 432 "}}}
